{"title":"U-571.2000.DVDRip.x264.AC3-UnKn0wn","uid":9567118,"size":3399472953,"categoryP":"video","categoryS":"movies","magnet":"?xt=urn:btih:9b8111b810bea2766c8dea0666b1f8ae44ea6e93&amp;dn=U-571.2000.DVDRip.x264.AC3-UnKn0wn&amp;tr=udp%3A%2F%2Ftracker.openbittorrent.com%3A80&amp;tr=udp%3A%2F%2Fopen.demonii.com%3A1337&amp;tr=udp%3A%2F%2Ftracker.coppersurfer.tk%3A6969&amp;tr=udp%3A%2F%2Fexodus.desync.com%3A6969","seeders":1,"leechers":0,"uploader":null,"files":2,"time":1391540667,"description":"U-571.2000.DVDRip.x264.AC3-UnKn0wn\n &lt;a href=&quot;\nhttp://www.imdb.com/title/tt0141926/&quot; rel=&quot;nofollow&quot; target=&quot;_NEW&quot;&gt;\nhttp://www.imdb.com/title/tt0141926/&lt;/a&gt;\n\nFormat : MPEG-4 \nFormat profile : Base Media / Version 2 \nCodec ID : mp42 \nFile size : 3.17 GiB \nDuration : 1h 56mn \nOverall bit rate : 3 900 Kbps \nEncoded date : UTC 2014-02-04 16:06:25 \nTagged date : UTC 2014-02-04 17:23:33 \nWriting application : HandBrake 0.9.9 2013051800 \n\nVideo \nID : 1 \nFormat : AVC \nFormat/Info : Advanced Video Codec \nFormat profile : &lt;a class=&quot;__cf_email__&quot; href=&quot;/cdn-cgi/l/email-protection&quot; data-cfemail=&quot;3179585659717d041f03&quot;&gt;[email&amp;#160;protected]&lt;/a&gt;&lt;script cf-hash='f9e31' type=&quot;text/javascript&quot;&gt;\n/* &lt;![CDATA[ */!function(){try{var t=&quot;currentScript&quot;in document?document.currentScript:function(){for(var t=document.getElementsByTagName(&quot;script&quot;),e=t.length;e--;)if(t[e].getAttribute(&quot;cf-hash&quot;))return t[e]}();if(t&amp;&amp;t.previousSibling){var e,r,n,i,c=t.previousSibling,a=c.getAttribute(&quot;data-cfemail&quot;);if(a){for(e=&quot;&quot;,r=parseInt(a.substr(0,2),16),n=2;a.length-n;n+=2)i=parseInt(a.substr(n,2),16)^r,e+=String.fromCharCode(i);e=document.createTextNode(e),c.parentNode.replaceChild(e,c)}}}catch(u){}}();/* ]]&gt; */&lt;/script&gt; \nFormat settings, CABAC : Yes \nFormat settings, ReFrames : 4 frames \nCodec ID : avc1 \nCodec ID/Info : Advanced Video Coding \nDuration : 1h 56mn \nBit rate : 3 000 Kbps \nWidth : 712 pixels \nHeight : 362 pixels \nDisplay aspect ratio : 2.35:1 \nFrame rate mode : Variable \nFrame rate : 23.976 fps \nMinimum frame rate : 23.974 fps \nMaximum frame rate : 23.981 fps \nColor space : YUV \nChroma subsampling : 4:2:0 \nBit depth : 8 bits \nScan type : Progressive \nBits/(Pixel*Frame) : 0.485 \nStream size : 2.44 GiB (77%) \nWriting library : x264 core 130 r2273 b3065e6 \nEncoding settings : cabac=1 / ref=3 / deblock=1:-1:-1 / analyse=0x3:0x113 / me=hex / subme=7 / psy=1 / psy_rd=1.00:0.15 / mixed_ref=1 / me_range=16 / chroma_me=1 / trellis=1 / 8x8dct=1 / cqm=0 / deadzone=21,11 / fast_pskip=1 / chroma_qp_offset=-3 / threads=6 / lookahead_threads=1 / sliced_threads=0 / nr=0 / decimate=1 / interlaced=0 / bluray_compat=0 / constrained_intra=0 / bframes=3 / b_pyramid=2 / b_adapt=1 / b_bias=0 / direct=1 / weightb=1 / open_gop=0 / weightp=2 / keyint=240 / keyint_min=24 / scenecut=40 / intra_refresh=0 / rc_lookahead=40 / rc=2pass / mbtree=1 / bitrate=3000 / ratetol=1.0 / qcomp=0.60 / qpmin=0 / qpmax=69 / qpstep=4 / cplxblur=20.0 / qblur=0.5 / vbv_maxrate=300000 / vbv_bufsize=300000 / nal_hrd=none / ip_ratio=1.40 / aq=1:1.00 \nEncoded date : UTC 2014-02-04 16:06:25 \nTagged date : UTC 2014-02-04 17:23:33 \nColor primaries : BT.601 NTSC \nTransfer characteristics : BT.709 \nMatrix coefficients : BT.601 \n\nAudio #1 \nID : 2 \nFormat : AC-3 \nFormat/Info : Audio Coding 3 \nMode extension : CM (complete main) \nFormat settings, Endianness : Big \nCodec ID : ac-3 \nDuration : 1h 56mn \nBit rate mode : Constant \nBit rate : 448 Kbps \nChannel(s) : 6 channels \nChannel positions : Front: L C R, Side: L R, LFE \nSampling rate : 48.0 KHz \nBit depth : 16 bits \nCompression mode : Lossy \nStream size : 372 MiB (11%) \nEncoded date : UTC 2014-02-04 16:06:25 \nTagged date : UTC 2014-02-04 17:23:33 \n\nAudio #2 \nID : 3 \nFormat : AC-3 \nFormat/Info : Audio Coding 3 \nMode extension : CM (complete main) \nFormat settings, Endianness : Big \nCodec ID : ac-3 \nDuration : 1h 56mn \nBit rate mode : Constant \nBit rate : 448 Kbps \nChannel(s) : 6 channels \nChannel positions : Front: L C R, Side: L R, LFE \nSampling rate : 48.0 KHz \nBit depth : 16 bits \nCompression mode : Lossy \nStream size : 372 MiB (11%) \nEncoded date : UTC 2014-02-04 16:06:25 \nTagged date : UTC 2014-02-04 17:23:33 \n\nText \nID : 4 \nFormat : mp4s \nCodec ID : E0 \nEncoded date : UTC 2014-02-04 16:06:25 \nTagged date : UTC 2014-02-04 16:06:25 \n\nMenu \nID : 5 \nCodec ID : text \nDuration : 1h 56mn \nEncoded date : UTC 2014-02-04 16:06:25 \nTagged date : UTC 2014-02-04 17:23:33 \nBit rate mode : VBR \n","torrent":{"xt":"urn:btih:9b8111b810bea2766c8dea0666b1f8ae44ea6e93","amp;dn":"U-571.2000.DVDRip.x264.AC3-UnKn0wn","amp;tr":["udp%3A%2F%2Ftracker.openbittorrent.com%3A80","udp%3A%2F%2Fopen.demonii.com%3A1337","udp%3A%2F%2Ftracker.coppersurfer.tk%3A6969","udp%3A%2F%2Fexodus.desync.com%3A6969"],"infoHash":"9b8111b810bea2766c8dea0666b1f8ae44ea6e93","infoHashBuffer":{"type":"Buffer","data":[155,129,17,184,16,190,162,118,108,141,234,6,102,177,248,174,68,234,110,147]},"announce":[],"urlList":[]}}